<mxfile host="app.diagrams.net" modified="2023-10-31T10:03:33.667Z" agent="Mozilla/5.0 (Windows NT 10.0; Win64; x64) AppleWebKit/537.36 (KHTML, like Gecko) Chrome/118.0.0.0 Safari/537.36" version="22.0.8" etag="QHrqRV1cQacMUGgzm0Gc" type="github">
  <diagram name="Page-1" id="gI2rZpiOaSHzDh1cHGTj">
    <mxGraphModel>
      <root>
        <mxCell id="0" />
        <mxCell id="1" parent="0" />
      </root>
    </mxGraphModel>
  </diagram>
</mxfile>
